<svg width="80" height="74" viewBox="0 0 80 74" fill="none" xmlns="http://www.w3.org/2000/svg">
<path d="M78.4025 55.0161L50.4944 6.08767C49.3659 4.22138 47.8111 2.68547 45.9734 1.62157C44.1356 0.557661 42.0741 0 39.9788 0C37.8836 0 35.822 0.557661 33.9843 1.62157C32.1465 2.68547 30.5917 4.22138 29.4633 6.08767L1.55516 55.0161C0.56929 56.7534 0.0334521 58.7345 0.00151613 60.7602C-0.0304198 62.7858 0.442672 64.7847 1.37323 66.5558C2.44909 68.5493 4.00634 70.2052 5.88583 71.354C7.76532 72.5029 9.89966 73.1037 12.0707 73.0949H67.8869C70.0437 73.1193 72.1684 72.5417 74.0466 71.4207C75.9248 70.2996 77.4901 68.6746 78.5844 66.7096C79.5423 64.9201 80.0305 62.8926 79.9985 60.8367C79.9665 58.7808 79.4155 56.7713 78.4025 55.0161ZM72.2169 62.9015C71.7796 63.6962 71.1449 64.3493 70.3817 64.79C69.6185 65.2307 68.7557 65.4423 67.8869 65.4018H12.0707C11.2019 65.4423 10.3392 65.2307 9.57595 64.79C8.81272 64.3493 8.17809 63.6962 7.74079 62.9015C7.42143 62.3168 7.2533 61.6535 7.2533 60.9783C7.2533 60.303 7.42143 59.6397 7.74079 59.055L35.6853 10.0881C36.1874 9.3869 36.8364 8.81822 37.5813 8.42667C38.3263 8.03512 39.1469 7.83136 39.9788 7.83136C40.8108 7.83136 41.6314 8.03512 42.3763 8.42667C43.1212 8.81822 43.7702 9.3869 44.2724 10.0881L72.1805 59.0165C72.5122 59.6024 72.6904 60.271 72.6968 60.9538C72.7031 61.6366 72.5375 62.3088 72.2169 62.9015Z" fill="#FF0000"/>
<path d="M39.9803 57.7088C41.99 57.7088 43.6191 55.9866 43.6191 53.8622C43.6191 51.7378 41.99 50.0156 39.9803 50.0156C37.9707 50.0156 36.3416 51.7378 36.3416 53.8622C36.3416 55.9866 37.9707 57.7088 39.9803 57.7088Z" fill="#FF0000"/>
<path d="M39.9803 23.0898C39.0153 23.0898 38.0897 23.4951 37.4073 24.2165C36.7249 24.9379 36.3416 25.9162 36.3416 26.9364V42.3227C36.3416 43.3429 36.7249 44.3213 37.4073 45.0427C38.0897 45.7641 39.0153 46.1693 39.9803 46.1693C40.9454 46.1693 41.8709 45.7641 42.5533 45.0427C43.2357 44.3213 43.6191 43.3429 43.6191 42.3227V26.9364C43.6191 25.9162 43.2357 24.9379 42.5533 24.2165C41.8709 23.4951 40.9454 23.0898 39.9803 23.0898Z" fill="#FF0000"/>
</svg>
