<svg width="49" height="49" viewBox="0 0 49 49" fill="none" xmlns="http://www.w3.org/2000/svg">
<g clip-path="url(#clip0)">
<path d="M47.3437 9.65197L32.4969 24.5002L47.3437 39.3477C49.552 41.557 49.552 45.1356 47.3437 47.3448C46.2402 48.4482 44.7936 49.0003 43.3477 49.0003C41.8993 49.0003 40.4525 48.4491 39.3499 47.3448L24.5 32.4956L9.65114 47.3447C8.54787 48.4481 7.10108 49.0002 5.65386 49.0002C4.20707 49.0002 2.76126 48.4489 1.65701 47.3447C-0.551373 45.1364 -0.551373 41.5577 1.65701 39.3476L16.5033 24.5001L1.65616 9.65197C-0.552217 7.44359 -0.552217 3.86412 1.65616 1.65575C3.86412 -0.550939 7.4415 -0.550939 9.6503 1.65575L24.4998 16.504L39.3483 1.65575C41.5575 -0.550939 45.1353 -0.550939 47.3428 1.65575C49.552 3.86412 49.552 7.44359 47.3437 9.65197Z" fill="#FF0000"/>
</g>
<defs>
<clipPath id="clip0">
<rect width="49" height="49" fill="white"/>
</clipPath>
</defs>
</svg>
