<svg width="27" height="21" viewBox="0 0 27 21" fill="none" xmlns="http://www.w3.org/2000/svg">
<path d="M21.375 8.27851V2.62502C21.375 1.38412 20.3659 0.375 19.125 0.375H2.24996C1.00907 0.375 0 1.38407 0 2.62502V13.875C0 15.1159 1.00907 16.125 2.25002 16.125H14.8649C15.6019 18.7181 17.9863 20.625 20.8125 20.625C21.9002 20.625 22.9697 20.3388 23.9068 19.7966C24.1754 19.6412 24.2677 19.2973 24.1117 19.0282C23.9562 18.759 23.6118 18.6661 23.3432 18.8233C22.5774 19.266 21.7024 19.5 20.8125 19.5C18.0208 19.5 15.75 17.2291 15.75 14.4375C15.75 11.6459 18.0209 9.37502 20.8125 9.37502C23.6041 9.37502 25.875 11.6459 25.875 14.4375V15C25.875 15.6202 25.3701 16.125 24.75 16.125C24.1298 16.125 23.625 15.6202 23.625 15V12.75C23.625 12.4391 23.3734 12.1875 23.0625 12.1875C22.9112 12.1875 22.7752 12.2487 22.6743 12.3457C22.1771 11.9027 21.5292 11.625 20.8125 11.625C19.2618 11.625 18 12.8868 18 14.4375C18 15.9882 19.2618 17.25 20.8125 17.25C21.6508 17.25 22.3961 16.874 22.9119 16.2901C23.3194 16.869 23.9898 17.25 24.75 17.25C25.9909 17.25 27 16.2409 27 15V14.4375C27 11.2156 24.5238 8.56402 21.375 8.27851ZM2.25002 1.49998H19.125C19.1484 1.49998 19.168 1.51195 19.1911 1.51338L11.1501 8.11377C10.8639 8.29396 10.4491 8.25657 10.2629 8.14235L2.18457 1.51327C2.20741 1.5119 2.22681 1.49998 2.25002 1.49998ZM20.25 8.27851C17.1012 8.56402 14.625 11.2156 14.625 14.4375C14.625 14.6274 14.6366 14.8145 14.6535 15H2.25002C1.62986 15 1.12504 14.4952 1.12504 13.8751V2.62502C1.12504 2.46571 1.16021 2.31526 1.22022 2.17783L9.59882 9.04875C9.92619 9.26243 10.3025 9.37507 10.6876 9.37507C11.0578 9.37507 11.4198 9.27071 11.7384 9.07296C11.7703 9.05592 11.8005 9.03562 11.8291 9.01199L20.1548 2.17772C20.2148 2.31526 20.2501 2.46571 20.2501 2.62507V8.27851H20.25ZM20.8125 16.125C19.882 16.125 19.125 15.3681 19.125 14.4375C19.125 13.507 19.882 12.75 20.8125 12.75C21.7431 12.75 22.5 13.507 22.5 14.4375C22.5 15.3681 21.7431 16.125 20.8125 16.125Z" fill="white"/>
</svg>
