<svg width="24" height="24" viewBox="0 0 24 24" fill="none" xmlns="http://www.w3.org/2000/svg">
<g clip-path="url(#clip0)">
<path d="M12 7.01263C10.1155 7.01263 8.58234 8.54577 8.58234 10.4303C8.58234 12.3149 10.1155 13.848 12 13.848C13.8846 13.848 15.4177 12.3149 15.4177 10.4303C15.4177 8.54582 13.8846 7.01263 12 7.01263ZM12 12.3291C10.9529 12.3291 10.1013 11.4772 10.1013 10.4304C10.1013 9.38329 10.9529 8.53166 12 8.53166C13.0471 8.53166 13.8988 9.38329 13.8988 10.4304C13.8988 11.4775 13.0471 12.3291 12 12.3291Z" fill="white"/>
<path d="M12 12.3038C9.19414 12.3038 6.91138 14.5866 6.91138 17.3924V18.5317C6.91138 18.9512 7.25136 19.2912 7.67089 19.2912C8.09038 19.2912 8.43041 18.9512 8.43041 18.5317V17.3924C8.43041 15.4241 10.0317 13.8228 12 13.8228C13.9684 13.8228 15.5697 15.4243 15.5697 17.3924V18.5317C15.5697 18.9512 15.9096 19.2912 16.3292 19.2912C16.7487 19.2912 17.0887 18.9512 17.0887 18.5317V17.3924C17.0886 14.5866 14.8058 12.3038 12 12.3038Z" fill="white"/>
<path d="M18.9114 4.70886C17.0269 4.70886 15.4937 6.24205 15.4937 8.12656C15.4937 10.0111 17.0269 11.5443 18.9114 11.5443C20.7962 11.5443 22.3291 10.0111 22.3291 8.12656C22.3291 6.24205 20.796 4.70886 18.9114 4.70886ZM18.9114 10.0253C17.8643 10.0253 17.0127 9.17366 17.0127 8.12656C17.0127 7.07947 17.8643 6.22785 18.9114 6.22785C19.9585 6.22785 20.8101 7.07947 20.8101 8.12656C20.8101 9.17366 19.9585 10.0253 18.9114 10.0253Z" fill="white"/>
<path d="M18.9114 10C16.584 10 14.5532 11.5775 13.9734 13.8364C13.8691 14.2425 14.1139 14.6564 14.52 14.7608C14.9263 14.8661 15.34 14.6205 15.4443 14.2142C15.8519 12.6271 17.2778 11.519 18.9114 11.519C20.8798 11.519 22.4811 13.1206 22.4811 15.0887V16.2279C22.4811 16.6474 22.8211 16.9874 23.2406 16.9874C23.6601 16.9874 24.0001 16.6474 24.0001 16.2279V15.0886C24 12.2828 21.7172 10 18.9114 10Z" fill="white"/>
<path d="M5.08866 4.70886C3.2041 4.70886 1.67096 6.24205 1.67096 8.12656C1.67096 10.0111 3.20415 11.5443 5.08866 11.5443C6.97323 11.5443 8.50637 10.0111 8.50637 8.12656C8.50637 6.24205 6.97323 4.70886 5.08866 4.70886ZM5.08866 10.0253C4.04157 10.0253 3.18994 9.17366 3.18994 8.12656C3.18994 7.07947 4.04157 6.22785 5.08866 6.22785C6.13576 6.22785 6.98738 7.07947 6.98738 8.12656C6.98738 9.17366 6.13576 10.0253 5.08866 10.0253Z" fill="white"/>
<path d="M10.0015 13.8112C9.42534 11.5671 7.40508 10.0001 5.08861 10.0001C2.28277 10 0 12.2828 0 15.0886V16.2279C0 16.6474 0.339984 16.9874 0.759516 16.9874C1.179 16.9874 1.51903 16.6474 1.51903 16.2279V15.0886C1.51903 13.1205 3.12028 11.519 5.08866 11.519C6.71142 11.519 8.12662 12.6167 8.53017 14.1889C8.63447 14.5949 9.04687 14.839 9.45473 14.7357C9.861 14.6314 10.1058 14.2173 10.0015 13.8112Z" fill="white"/>
</g>
<defs>
<clipPath id="clip0">
<rect width="24" height="24" fill="white"/>
</clipPath>
</defs>
</svg>
